<svg width="428" height="469" viewBox="0 0 428 469" fill="none" xmlns="http://www.w3.org/2000/svg">
<path d="M173.062 11.5871C198.402 -3.01259 229.598 -3.01259 254.938 11.5871L386.846 87.591C412.252 102.229 427.908 129.319 427.908 158.641V310.36C427.908 339.681 412.252 366.771 386.846 381.409L254.938 457.412C229.598 472.012 198.402 472.012 173.062 457.412L41.1543 381.409C15.7484 366.771 0.0918921 339.681 0.0917969 310.36V158.641C0.0917969 129.319 15.7483 102.229 41.1543 87.591L173.062 11.5871ZM199.967 128.38C191.976 128.38 185.211 134.276 184.118 142.192L177.127 192.804C168.408 195.891 160.059 200.062 152.286 205.255C133.868 217.562 119.513 235.055 111.036 255.52C102.559 275.985 100.342 298.504 104.663 320.23C108.985 341.955 119.652 361.912 135.315 377.575C150.979 393.239 170.935 403.906 192.661 408.228C214.387 412.549 236.907 410.332 257.372 401.855C277.837 393.378 295.329 379.023 307.636 360.605C317.629 345.648 323.839 328.557 325.82 310.799C325.924 309.87 325.936 308.951 325.866 308.05C325.952 307.38 326 306.696 326 306V286C326 277.164 318.836 270 310 270H266V305.675C262.455 330.938 240.752 350.38 214.511 350.38C185.792 350.38 162.511 327.099 162.511 298.38C162.511 269.886 185.429 246.744 213.837 246.384L214.538 246.38H245.511V144.38C245.511 135.544 238.347 128.38 229.511 128.38H199.967ZM185.511 60.3801V104.38C185.511 113.216 192.674 120.38 201.511 120.38H229.511C238.347 120.38 245.511 113.216 245.511 104.38V76.3801C245.511 67.5436 238.347 60.3802 229.511 60.3801H185.511Z" fill="#F6CAFF"/>
</svg>
